<svg xmlns="http://www.w3.org/2000/svg" width="26" height="26" fill="none" viewBox="0 0 26 26"><path fill="#FCBD54" fill-rule="evenodd" d="M13.2924 2.3712C13.1725 2.12822 12.826 2.12822 12.7061 2.3712L9.87096 8.11574C9.60485 8.65494 9.09045 9.02868 8.4954 9.11514L2.15593 10.0363C1.88778 10.0753 1.78071 10.4048 1.97475 10.594L6.56203 15.0655C6.99261 15.4852 7.18909 16.0899 7.08745 16.6825L6.00454 22.9964C5.95873 23.2634 6.23904 23.4671 6.47889 23.341L12.1491 20.36C12.6813 20.0802 13.3171 20.0802 13.8494 20.36L19.5196 23.341C19.7594 23.4671 20.0397 23.2634 19.9939 22.9964L18.911 16.6825C18.8094 16.0899 19.0058 15.4852 19.4364 15.0655L24.0237 10.594C24.2177 10.4048 24.1107 10.0753 23.8425 10.0363L17.503 9.11514C16.908 9.02868 16.3936 8.65494 16.1275 8.11574L13.2924 2.3712ZM11.361 1.70736C12.0311 0.349503 13.9673 0.3495 14.6375 1.70735L17.4726 7.45189C17.5202 7.54838 17.6123 7.61526 17.7187 7.63073L24.0582 8.55191C25.5567 8.76965 26.155 10.6111 25.0707 11.6681L20.4834 16.1396C20.4064 16.2147 20.3712 16.3229 20.3894 16.429L21.4723 22.7428C21.7283 24.2352 20.1618 25.3733 18.8216 24.6687L13.1514 21.6877C13.0561 21.6376 12.9423 21.6376 12.8471 21.6877L7.1769 24.6687C5.83662 25.3733 4.27015 24.2352 4.52612 22.7428L5.60904 16.429C5.62722 16.3229 5.59206 16.2147 5.51501 16.1396L0.927729 11.6681C-0.15658 10.6111 0.441753 8.76965 1.94023 8.55191L8.2797 7.63073C8.38619 7.61526 8.47824 7.54838 8.52586 7.45189L11.361 1.70736Z" clip-rule="evenodd"/><path fill="#FCBD54" d="M12.7061 2.3712C12.826 2.12822 13.1725 2.12822 13.2924 2.3712L16.1275 8.11574C16.3936 8.65494 16.908 9.02868 17.503 9.11514L23.8425 10.0363C24.1107 10.0753 24.2177 10.4048 24.0237 10.594L19.4364 15.0655C19.0058 15.4852 18.8094 16.0899 18.911 16.6825L19.9939 22.9964C20.0397 23.2634 19.7594 23.4671 19.5196 23.341L13.8494 20.36C13.3171 20.0802 12.6813 20.0802 12.1491 20.36L6.47889 23.341C6.23904 23.4671 5.95873 23.2634 6.00454 22.9964L7.08745 16.6825C7.18909 16.0899 6.99261 15.4852 6.56203 15.0655L1.97475 10.594C1.78071 10.4048 1.88778 10.0753 2.15593 10.0363L8.4954 9.11514C9.09045 9.02868 9.60485 8.65494 9.87096 8.11574L12.7061 2.3712Z"/></svg>