<svg xmlns="http://www.w3.org/2000/svg" width="26" height="26" fill="none" viewBox="0 0 26 26"><path fill="#fff" fill-rule="evenodd" d="M11.5181 1.37968C19.1063 0.446946 25.4918 6.78889 24.6343 14.3649C24.0603 19.4324 20.1397 23.6095 15.1232 24.52C12.6975 24.9598 10.3891 24.6225 8.36975 23.748C8.19599 23.6726 8.02443 23.6532 7.87187 23.6826L3.73683 24.4803C2.67227 24.684 1.73659 23.7495 1.942 22.6836M1.942 22.6836L2.67371 18.8849C2.70653 18.7142 2.67875 18.5227 2.58161 18.3335C1.52107 16.2708 1.0459 13.8576 1.40951 11.3081C2.14501 6.14536 6.34 2.01741 11.5181 1.37968M11.7011 2.86848C7.1976 3.42321 3.53469 7.02603 2.8945 11.5198C2.57655 13.7491 2.99126 15.85 3.91579 17.648C4.14767 18.0996 4.25014 18.6308 4.14667 19.1684L3.41492 22.9673C3.41301 22.9773 3.41425 22.9816 3.41487 22.9835C3.41598 22.9869 3.41871 22.9923 3.42409 22.9977C3.42948 23.003 3.43487 23.0058 3.43849 23.007C3.44059 23.0077 3.44487 23.009 3.45489 23.007L7.58797 22.2097C8.06999 22.1169 8.54779 22.1901 8.96631 22.3717C10.7276 23.1344 12.7358 23.4284 14.8554 23.0441C19.2229 22.2514 22.6446 18.6036 23.1439 14.1962C23.8924 7.5828 18.3258 2.05428 11.7011 2.86848Z" clip-rule="evenodd"/><path fill="#fff" fill-rule="evenodd" d="M9.53895 14.1538C10.1762 14.1538 10.6928 13.6373 10.6928 13C10.6928 12.3627 10.1762 11.8462 9.53895 11.8462C8.9017 11.8462 8.3851 12.3627 8.3851 13C8.3851 13.6373 8.9017 14.1538 9.53895 14.1538Z" clip-rule="evenodd"/><path fill="#fff" fill-rule="evenodd" d="M16.462 14.1538C17.0993 14.1538 17.6159 13.6373 17.6159 13C17.6159 12.3627 17.0993 11.8462 16.462 11.8462C15.8248 11.8462 15.3082 12.3627 15.3082 13C15.3082 13.6373 15.8248 14.1538 16.462 14.1538Z" clip-rule="evenodd"/></svg>