<svg xmlns="http://www.w3.org/2000/svg" width="26" height="26" fill="none" viewBox="0 0 26 26"><path fill="#FF2442" fill-rule="evenodd" d="M2.91053 4.80782C4.37714 3.34125 6.30041 2.60718 8.2222 2.60718C9.91814 2.60718 11.615 3.17901 12.9987 4.32023C14.3821 3.17829 16.0791 2.60718 17.7749 2.60718C19.6958 2.60718 21.6207 3.34118 23.0874 4.8079C26.019 7.73955 26.0207 12.4918 23.0881 15.4323L14.0562 24.4626C13.4721 25.0467 12.5247 25.0457 11.9408 24.4633L2.90349 15.426C-0.0231941 12.4915 -0.0215781 7.73914 2.91053 4.80782ZM8.2222 4.10718C6.68226 4.10718 5.14536 4.69431 3.97111 5.86856C1.62475 8.21423 1.62302 12.0177 3.9653 14.3665L12.9981 23.3993L22.026 14.373C24.3752 12.0176 24.3722 8.21398 22.0267 5.86856C20.8526 4.6944 19.3142 4.10718 17.7749 4.10718C16.2368 4.10718 14.702 4.69229 13.5286 5.86293C13.236 6.15487 12.7623 6.15501 12.4695 5.86325C11.295 4.69292 9.75998 4.10718 8.2222 4.10718Z" clip-rule="evenodd"/><path fill="#FF2442" d="M3.97111 5.86856C5.14536 4.69431 6.68226 4.10718 8.2222 4.10718C9.75998 4.10718 11.295 4.69292 12.4695 5.86325C12.7623 6.15501 13.236 6.15487 13.5286 5.86293C14.702 4.69229 16.2368 4.10718 17.7749 4.10718C19.3142 4.10718 20.8526 4.6944 22.0267 5.86856C24.3722 8.21398 24.3752 12.0176 22.026 14.373L12.9981 23.3993L3.9653 14.3665C1.62302 12.0177 1.62475 8.21423 3.97111 5.86856Z"/></svg>