<svg xmlns="http://www.w3.org/2000/svg" xmlns:xlink="http://www.w3.org/1999/xlink" width="14" height="14" version="1.1" viewBox="0 0 14 14"><title>Combined Shape</title><desc>Created with Sketch.</desc><g id="Page-1" fill="none" fill-rule="evenodd" stroke="none" stroke-width="1"><g id="播放动效" fill="#FFF" transform="translate(-84.000000, -247.000000)"><g id="Group-5" transform="translate(56.000000, 242.000000)"><path id="Combined-Shape" d="M35,19 C31.1340068,19 28,15.8659932 28,12 C28,8.13400675 31.1340068,5 35,5 C38.8659932,5 42,8.13400675 42,12 C42,15.8659932 38.8659932,19 35,19 Z M32,13 C32.5519878,13 33,12.5518219 33,12 C33,11.4475386 32.5525076,11 32,11 C31.4474924,11 31,11.4475386 31,12 C31,12.5518219 31.4480122,13 32,13 Z M35.3177287,8.03291326 C36.9112522,8.83787792 37.7368383,9.91215204 37.7368383,11.5059919 C37.7368383,13.0964993 36.9150996,14.1610786 35.3180118,14.9668776 C35.0142768,15.1201249 34.9093771,15.4625668 35.0855187,15.7301508 C35.2536085,15.9855031 35.6282681,16.072378 35.9416777,15.9355667 C37.8561451,15.0998525 39,13.5344837 39,11.494946 C39,9.45844554 37.8590373,7.90134376 35.9419301,7.06449455 C35.6284903,6.92767282 35.2538671,7.01434389 35.0856838,7.26953231 C34.9093843,7.53703554 35.0140821,7.87952686 35.3177287,8.03291326 Z M33.0246117,13.5922404 C33.1216726,13.8896701 33.4775815,14.0620108 33.8197784,13.9792856 C35.1210773,13.6646999 36,12.6924117 36,11.4944455 C36,10.2990762 35.1284475,9.33945993 33.820988,9.02100846 C33.4789819,8.9377077 33.122693,9.10944253 33.0249594,9.40669882 C32.9266471,9.70571512 33.1276671,10.0159895 33.4714763,10.0997294 C34.1898827,10.2747082 34.7079191,10.8472766 34.7079191,11.506565 C34.7079191,12.1629314 34.1939587,12.7256117 33.4726859,12.8999776 C33.1286966,12.9831361 32.9269798,13.2930606 33.0246117,13.5922404 Z"/></g></g></g></svg>