<svg xmlns="http://www.w3.org/2000/svg" xmlns:xlink="http://www.w3.org/1999/xlink" width="87" height="57" version="1.1" viewBox="0 0 87 57"><title>Group 3</title><desc>Created with Sketch.</desc><g id="收藏" fill="none" fill-rule="evenodd" stroke="none" stroke-width="1"><g id="搜索结果_笔记" transform="translate(-145.000000, -276.000000)"><g id="Group-3" transform="translate(143.000000, 243.000000)"><rect id="Rectangle-8" width="90" height="90" x="0" y="0"/><g id="Page-1" transform="translate(3.000000, 34.000000)"><path id="Stroke-1" stroke="#CCC" stroke-linecap="round" stroke-width="2" d="M-0.0002,54.1344 L64.4998,54.1344"/><path id="Stroke-3" stroke="#CCC" stroke-linecap="round" stroke-width="2" d="M74.2395,54.1344 L84.2395,54.1344"/><path id="Fill-5" fill="#CCC" d="M70.5198,54.1559 C70.5198,54.7909 70.0048,55.3059 69.3698,55.3059 C68.7348,55.3059 68.2198,54.7909 68.2198,54.1559 C68.2198,53.5209 68.7348,53.0059 69.3698,53.0059 C70.0048,53.0059 70.5198,53.5209 70.5198,54.1559"/><path id="Stroke-7" stroke="#CCC" stroke-linecap="round" stroke-width="2" d="M62.4241,25.9654 C56.4841,31.9044 46.8531,31.9054 40.9131,25.9654 C34.9731,20.0264 34.9731,10.3954 40.9131,4.4544 C46.8531,-1.4846 56.4841,-1.4846 62.4241,4.4544 C68.3641,10.3954 68.3641,20.0254 62.4241,25.9654 Z"/><path id="Stroke-9" stroke="#EEE" stroke-linecap="round" stroke-linejoin="round" stroke-width="2" d="M42.867,14.1451 C42.867,9.8731 46.331,6.4091 50.603,6.4091"/><path id="Stroke-11" stroke="#CCC" stroke-linecap="round" stroke-width="2" d="M40.9134,25.9654 L37.9424,28.9364"/><path id="Fill-13" fill="#EEE" d="M21.9583,46.359 L20.5193,44.921 C19.3873,43.789 19.4523,41.933 20.6613,40.883 L34.1803,28.804 C35.2743,27.853 36.9173,27.911 37.9423,28.936 C38.9673,29.962 39.0253,31.604 38.0753,32.699 L25.9953,46.217 C24.9453,47.426 23.0903,47.492 21.9583,46.359"/><path id="Stroke-15" stroke="#CCC" stroke-linecap="round" stroke-width="2" d="M21.9583,46.359 L20.5193,44.921 C19.3873,43.789 19.4523,41.933 20.6613,40.883 L34.1803,28.804 C35.2743,27.853 36.9173,27.911 37.9423,28.936 C38.9673,29.962 39.0253,31.604 38.0753,32.699 L25.9953,46.217 C24.9453,47.426 23.0903,47.492 21.9583,46.359 Z"/></g></g></g></g></svg>